<svg width="25" height="25" viewBox="0 0 25 25" fill="none" xmlns="http://www.w3.org/2000/svg">
<g clip-path="url(#clip0_3_789)">
<path d="M1.52966 12.0618C1.52966 4.06177 4.52966 1.06177 12.5297 1.06177C20.5297 1.06177 23.5297 4.06177 23.5297 12.0618C23.5297 20.0618 20.5297 23.0618 12.5297 23.0618C4.52966 23.0618 1.52966 20.0618 1.52966 12.0618Z" fill="white"/>
<path d="M20.6897 9.06177L16.7997 11.9218V18.1618H19.5297C19.8279 18.1646 20.1156 18.0515 20.3321 17.8463C20.5485 17.6411 20.6767 17.3598 20.6897 17.0618V9.06177Z" fill="#4CAF50"/>
<path d="M4.36969 9.06177L8.24969 11.9418V18.1718H5.52969C5.22977 18.1746 4.94063 18.0601 4.72393 17.8527C4.50722 17.6453 4.38011 17.3615 4.36969 17.0618V9.06177Z" fill="#1E88E5"/>
<path d="M16.7996 7.16174L12.5296 10.3117L8.25964 7.16174V11.9317L12.5296 15.0817L16.7996 11.9317V7.16174Z" fill="#E53935"/>
<path d="M4.36969 7.58177V9.06177L8.24969 11.9418V7.16177L7.03969 6.27177C6.75067 6.05681 6.39989 5.94105 6.03969 5.94177C5.82217 5.93913 5.60628 5.97953 5.40443 6.06064C5.20258 6.14175 5.01876 6.26198 4.86356 6.4144C4.70835 6.56682 4.58481 6.74843 4.50005 6.94877C4.4153 7.14911 4.37099 7.36424 4.36969 7.58177Z" fill="#C62828"/>
<path d="M20.6897 7.58177V9.06177L16.7997 11.9218V7.16177L18.0197 6.27177C18.3087 6.05681 18.6595 5.94105 19.0197 5.94177C19.2372 5.93913 19.4531 5.97953 19.6549 6.06064C19.8568 6.14175 20.0406 6.26198 20.1958 6.4144C20.351 6.56682 20.4746 6.74843 20.5593 6.94877C20.6441 7.14911 20.6884 7.36424 20.6897 7.58177Z" fill="#FBC02D"/>
</g>
<defs>
<clipPath id="clip0_3_789">
<rect width="24" height="24" fill="white" transform="translate(0.529663 0.0617676)"/>
</clipPath>
</defs>
</svg>
