<svg width="25" height="25" viewBox="0 0 25 25" fill="none" xmlns="http://www.w3.org/2000/svg">
<g clip-path="url(#clip0_3_946)">
<path d="M1.64105 12.9384C1.64105 4.93835 4.64105 1.93835 12.6411 1.93835C20.6411 1.93835 23.6411 4.93835 23.6411 12.9384C23.6411 20.9384 20.6411 23.9384 12.6411 23.9384C4.64105 23.9384 1.64105 20.9384 1.64105 12.9384Z" fill="#0079BD"/>
<path d="M5.60106 10.1583H8.72106V20.0783H5.60106V10.1583Z" fill="white"/>
<path d="M7.16105 5.31836C7.51706 5.31836 7.86507 5.42393 8.16108 5.62171C8.45709 5.8195 8.6878 6.10062 8.82404 6.42953C8.96027 6.75844 8.99592 7.12036 8.92647 7.46952C8.85701 7.81869 8.68558 8.13942 8.43385 8.39115C8.18211 8.64289 7.86138 8.81432 7.51222 8.88377C7.16305 8.95323 6.80113 8.91758 6.47222 8.78134C6.14332 8.6451 5.86219 8.41439 5.66441 8.11839C5.46662 7.82238 5.36105 7.47437 5.36105 7.11836C5.36105 6.64097 5.5507 6.18313 5.88826 5.84557C6.22583 5.508 6.68366 5.31836 7.16105 5.31836Z" fill="white"/>
<path d="M16.291 10.1583C15.7426 10.1849 15.2057 10.3259 14.7149 10.5721C14.2241 10.8184 13.7902 11.1645 13.441 11.5883V10.1583H10.321V20.0783H13.441V14.4283C13.441 14.2077 13.4845 13.9892 13.5689 13.7854C13.6534 13.5816 13.7771 13.3964 13.9331 13.2404C14.0891 13.0844 14.2743 12.9606 14.4781 12.8762C14.682 12.7918 14.9004 12.7483 15.121 12.7483C15.3417 12.7483 15.5601 12.7918 15.764 12.8762C15.9678 12.9606 16.153 13.0844 16.309 13.2404C16.465 13.3964 16.5887 13.5816 16.6732 13.7854C16.7576 13.9892 16.801 14.2077 16.801 14.4283V20.0783H19.921V14.7583C19.921 12.2583 19.641 10.1583 16.291 10.1583Z" fill="white"/>
</g>
<defs>
<clipPath id="clip0_3_946">
<rect width="24" height="24" fill="white" transform="translate(0.641052 0.938354)"/>
</clipPath>
</defs>
</svg>
